<?xml version="1.0" encoding="UTF-8"?>
<svg xmlns="http://www.w3.org/2000/svg" xmlns:xlink="http://www.w3.org/1999/xlink" width="40px" height="40px" viewBox="0 0 40 40" version="1.1">
<g id="surface1">
<path style=" stroke:none;fill-rule:nonzero;fill:rgb(20%,0%,0%);fill-opacity:1;" d="M 7.082031 0.03125 L 32.917969 0.03125 C 36.828125 0.03125 40 3.277344 40 7.285156 L 40 32.714844 C 40 36.722656 36.828125 39.96875 32.917969 39.96875 L 7.082031 39.96875 C 3.171875 39.96875 0 36.722656 0 32.714844 L 0 7.285156 C 0 3.277344 3.171875 0.03125 7.082031 0.03125 Z M 7.082031 0.03125 "/>
<path style=" stroke:none;fill-rule:nonzero;fill:rgb(100%,60.392159%,0%);fill-opacity:1;" d="M 19.382812 24 L 13.183594 24 L 11.921875 28.011719 C 11.890625 28.164062 11.753906 28.265625 11.601562 28.257812 L 8.460938 28.257812 C 8.28125 28.257812 8.21875 28.15625 8.273438 27.957031 L 13.640625 12.125 C 13.691406 11.960938 13.746094 11.773438 13.800781 11.5625 C 13.871094 11.199219 13.90625 10.824219 13.910156 10.449219 C 13.902344 10.40625 13.914062 10.359375 13.941406 10.324219 C 13.96875 10.289062 14.007812 10.265625 14.050781 10.257812 C 14.066406 10.257812 14.082031 10.257812 14.097656 10.257812 L 18.363281 10.257812 C 18.488281 10.257812 18.558594 10.304688 18.578125 10.394531 L 24.667969 27.984375 C 24.722656 28.164062 24.667969 28.257812 24.507812 28.257812 L 21.019531 28.257812 C 20.894531 28.269531 20.78125 28.1875 20.753906 28.066406 Z M 14.152344 20.535156 L 18.390625 20.535156 C 18.28125 20.167969 18.15625 19.753906 18.015625 19.296875 C 17.871094 18.839844 17.71875 18.351562 17.558594 17.828125 L 17.074219 16.261719 C 16.914062 15.738281 16.765625 15.234375 16.632812 14.75 C 16.5 14.261719 16.378906 13.820312 16.265625 13.417969 L 16.242188 13.417969 C 16.089844 14.160156 15.902344 14.894531 15.675781 15.617188 C 15.425781 16.441406 15.171875 17.285156 14.914062 18.144531 C 14.652344 19.007812 14.398438 19.800781 14.152344 20.535156 Z M 14.152344 20.535156 "/>
<path style=" stroke:none;fill-rule:nonzero;fill:rgb(100%,60.392159%,0%);fill-opacity:1;" d="M 28.292969 13.171875 C 27.738281 13.195312 27.199219 12.976562 26.816406 12.566406 C 26.429688 12.144531 26.230469 11.578125 26.253906 11 C 26.234375 10.429688 26.453125 9.875 26.855469 9.480469 C 27.253906 9.085938 27.789062 8.875 28.34375 8.886719 C 28.984375 8.886719 29.492188 9.085938 29.859375 9.480469 C 30.230469 9.890625 30.425781 10.441406 30.40625 11 C 30.429688 11.582031 30.21875 12.148438 29.828125 12.566406 C 29.421875 12.980469 28.863281 13.199219 28.292969 13.171875 Z M 26.441406 27.984375 L 26.441406 14.847656 C 26.441406 14.683594 26.511719 14.601562 26.65625 14.601562 L 29.953125 14.601562 C 30.097656 14.601562 30.167969 14.679688 30.167969 14.847656 L 30.167969 27.984375 C 30.167969 28.164062 30.097656 28.257812 29.953125 28.257812 L 26.683594 28.257812 C 26.519531 28.257812 26.441406 28.164062 26.441406 27.984375 Z M 26.441406 27.984375 "/>
</g>
</svg>
