<?xml version="1.0" encoding="UTF-8"?>
<svg xmlns="http://www.w3.org/2000/svg" xmlns:xlink="http://www.w3.org/1999/xlink" width="40px" height="40px" viewBox="0 0 40 40" version="1.1">
<g id="surface1">
<path style=" stroke:none;fill-rule:nonzero;fill:rgb(0%,11.764706%,21.176471%);fill-opacity:1;" d="M 7.089844 0 L 32.910156 0 C 36.820312 0 39.992188 3.253906 39.992188 7.265625 L 39.992188 32.734375 C 39.992188 36.746094 36.820312 40 32.910156 40 L 7.089844 40 C 3.179688 40 0.0078125 36.746094 0.0078125 32.734375 L 0.0078125 7.265625 C 0.0078125 3.253906 3.179688 0 7.089844 0 Z M 7.089844 0 "/>
<path style=" stroke:none;fill-rule:nonzero;fill:rgb(19.215687%,65.882355%,100%);fill-opacity:1;" d="M 9.011719 28.050781 L 9.011719 10.464844 C 9.011719 10.335938 9.066406 10.273438 9.171875 10.273438 C 9.457031 10.273438 9.71875 10.273438 10.109375 10.257812 C 10.5 10.246094 10.929688 10.238281 11.382812 10.230469 L 12.832031 10.203125 C 13.34375 10.195312 13.847656 10.1875 14.347656 10.1875 C 15.707031 10.1875 16.851562 10.363281 17.785156 10.710938 C 18.625 11.003906 19.390625 11.484375 20.023438 12.117188 C 20.5625 12.664062 20.980469 13.324219 21.246094 14.054688 C 21.496094 14.765625 21.621094 15.519531 21.621094 16.273438 C 21.621094 17.742188 21.289062 18.953125 20.628906 19.90625 C 19.960938 20.863281 19.023438 21.589844 17.945312 21.984375 C 16.820312 22.414062 15.566406 22.5625 14.191406 22.5625 C 13.800781 22.5625 13.519531 22.558594 13.359375 22.546875 C 13.195312 22.539062 12.957031 22.535156 12.632812 22.535156 L 12.632812 28.023438 C 12.640625 28.082031 12.628906 28.140625 12.59375 28.1875 C 12.558594 28.234375 12.507812 28.265625 12.453125 28.273438 C 12.433594 28.277344 12.414062 28.277344 12.390625 28.273438 L 9.199219 28.273438 C 9.070312 28.269531 9.011719 28.199219 9.011719 28.050781 Z M 12.632812 13.574219 L 12.632812 19.308594 C 12.867188 19.328125 13.082031 19.339844 13.277344 19.335938 L 14.164062 19.335938 C 14.8125 19.335938 15.460938 19.230469 16.082031 19.023438 C 16.613281 18.863281 17.085938 18.546875 17.449219 18.117188 C 17.796875 17.695312 17.972656 17.109375 17.972656 16.355469 C 17.984375 15.820312 17.851562 15.296875 17.582031 14.839844 C 17.300781 14.398438 16.894531 14.058594 16.414062 13.863281 C 15.792969 13.613281 15.128906 13.5 14.460938 13.519531 C 14.03125 13.519531 13.652344 13.523438 13.320312 13.53125 C 12.992188 13.542969 12.765625 13.554688 12.636719 13.574219 Z M 12.632812 13.574219 "/>
<path style=" stroke:none;fill-rule:nonzero;fill:rgb(19.215687%,65.882355%,100%);fill-opacity:1;" d="M 31.992188 18.265625 C 31.488281 18 30.949219 17.808594 30.394531 17.6875 C 29.78125 17.546875 29.15625 17.472656 28.53125 17.46875 C 28.191406 17.460938 27.851562 17.5 27.523438 17.59375 C 27.316406 17.640625 27.128906 17.761719 27 17.9375 C 26.914062 18.078125 26.867188 18.238281 26.867188 18.40625 C 26.871094 18.566406 26.929688 18.722656 27.027344 18.84375 C 27.183594 19.035156 27.375 19.1875 27.59375 19.300781 C 27.972656 19.507812 28.367188 19.695312 28.773438 19.859375 C 29.671875 20.167969 30.53125 20.589844 31.332031 21.113281 C 31.878906 21.464844 32.332031 21.953125 32.648438 22.53125 C 32.914062 23.078125 33.050781 23.679688 33.039062 24.292969 C 33.054688 25.101562 32.828125 25.890625 32.394531 26.5625 C 31.929688 27.246094 31.28125 27.777344 30.53125 28.089844 C 29.714844 28.460938 28.707031 28.644531 27.511719 28.644531 C 26.75 28.648438 25.988281 28.578125 25.242188 28.421875 C 24.65625 28.3125 24.085938 28.128906 23.539062 27.871094 C 23.421875 27.808594 23.347656 27.679688 23.351562 27.542969 L 23.351562 24.570312 C 23.34375 24.511719 23.371094 24.453125 23.417969 24.417969 C 23.46875 24.390625 23.527344 24.394531 23.566406 24.433594 C 24.210938 24.820312 24.90625 25.105469 25.632812 25.269531 C 26.277344 25.4375 26.933594 25.523438 27.59375 25.53125 C 28.21875 25.53125 28.679688 25.449219 28.976562 25.285156 C 29.246094 25.15625 29.421875 24.875 29.417969 24.570312 C 29.417969 24.332031 29.28125 24.101562 29.015625 23.882812 C 28.746094 23.660156 28.199219 23.394531 27.378906 23.085938 C 26.535156 22.785156 25.734375 22.371094 25.003906 21.847656 C 24.480469 21.476562 24.046875 20.980469 23.742188 20.40625 C 23.476562 19.863281 23.34375 19.265625 23.351562 18.660156 C 23.347656 17.929688 23.542969 17.210938 23.914062 16.589844 C 24.335938 15.902344 24.941406 15.359375 25.660156 15.019531 C 26.445312 14.617188 27.429688 14.414062 28.609375 14.414062 C 29.300781 14.410156 29.992188 14.457031 30.675781 14.566406 C 31.171875 14.628906 31.652344 14.765625 32.113281 14.964844 C 32.1875 14.988281 32.246094 15.042969 32.273438 15.117188 C 32.292969 15.183594 32.300781 15.253906 32.300781 15.324219 L 32.300781 18.105469 C 32.304688 18.167969 32.277344 18.230469 32.222656 18.269531 C 32.148438 18.304688 32.0625 18.304688 31.992188 18.265625 Z M 31.992188 18.265625 "/>
</g>
</svg>
