<?xml version="1.0" encoding="UTF-8"?>
<svg xmlns="http://www.w3.org/2000/svg" xmlns:xlink="http://www.w3.org/1999/xlink" width="40px" height="40px" viewBox="0 0 40 40" version="1.1">
<g id="surface1">
<path style=" stroke:none;fill-rule:nonzero;fill:rgb(0%,0%,35.686275%);fill-opacity:1;" d="M 7.085938 0 L 32.910156 0 C 34.789062 0 36.589844 0.761719 37.917969 2.125 C 39.246094 3.488281 39.992188 5.335938 39.992188 7.265625 L 39.992188 32.734375 C 39.992188 34.664062 39.246094 36.511719 37.917969 37.875 C 36.589844 39.238281 34.789062 40 32.910156 40 L 7.085938 40 C 5.207031 40 3.40625 39.234375 2.078125 37.875 C 0.75 36.511719 0.00390625 34.664062 0.0078125 32.734375 L 0.0078125 7.265625 C 0.00390625 5.335938 0.75 3.488281 2.078125 2.125 C 3.40625 0.761719 5.207031 0 7.085938 0 Z M 7.085938 0 "/>
<path style=" stroke:none;fill-rule:nonzero;fill:rgb(60.000002%,60.000002%,100%);fill-opacity:1;" d="M 9.503906 28.050781 L 9.503906 10.460938 C 9.503906 10.34375 9.554688 10.273438 9.671875 10.273438 C 9.953125 10.273438 10.21875 10.273438 10.605469 10.257812 C 11.007812 10.238281 11.421875 10.238281 11.871094 10.222656 C 12.320312 10.203125 12.808594 10.207031 13.320312 10.1875 C 13.835938 10.171875 14.335938 10.171875 14.839844 10.171875 C 16.203125 10.171875 17.332031 10.34375 18.269531 10.699219 C 19.105469 10.992188 19.867188 11.472656 20.503906 12.101562 C 21.039062 12.65625 21.453125 13.320312 21.71875 14.050781 C 21.96875 14.765625 22.101562 15.515625 22.101562 16.273438 C 22.101562 17.742188 21.769531 18.957031 21.101562 19.914062 C 20.429688 20.871094 19.496094 21.597656 18.417969 22 C 17.285156 22.425781 16.035156 22.582031 14.667969 22.582031 C 14.269531 22.582031 14 22.582031 13.835938 22.5625 C 13.667969 22.546875 13.4375 22.546875 13.117188 22.546875 L 13.117188 28.035156 C 13.125 28.089844 13.109375 28.148438 13.078125 28.195312 C 13.042969 28.238281 12.992188 28.269531 12.9375 28.273438 L 9.703125 28.273438 C 9.570312 28.273438 9.503906 28.203125 9.503906 28.050781 Z M 13.136719 13.570312 L 13.136719 19.316406 C 13.371094 19.332031 13.585938 19.351562 13.785156 19.351562 L 14.664062 19.351562 C 15.316406 19.351562 15.964844 19.246094 16.585938 19.039062 C 17.113281 18.878906 17.589844 18.566406 17.949219 18.132812 C 18.300781 17.707031 18.46875 17.125 18.46875 16.375 C 18.480469 15.839844 18.347656 15.3125 18.082031 14.855469 C 17.804688 14.410156 17.394531 14.070312 16.914062 13.878906 C 16.289062 13.628906 15.617188 13.511719 14.949219 13.539062 C 14.515625 13.539062 14.132812 13.539062 13.816406 13.554688 C 13.585938 13.539062 13.359375 13.546875 13.132812 13.570312 Z M 13.136719 13.570312 "/>
<path style=" stroke:none;fill-rule:nonzero;fill:rgb(60.000002%,60.000002%,100%);fill-opacity:1;" d="M 24.433594 14.566406 L 27.347656 14.566406 C 27.507812 14.566406 27.652344 14.679688 27.699219 14.839844 C 27.75 14.976562 27.78125 15.117188 27.796875 15.265625 C 27.832031 15.4375 27.863281 15.625 27.878906 15.792969 C 27.898438 15.984375 27.914062 16.1875 27.914062 16.410156 C 28.414062 15.8125 29.019531 15.3125 29.695312 14.941406 C 30.472656 14.5 31.34375 14.269531 32.230469 14.273438 C 32.285156 14.265625 32.339844 14.28125 32.382812 14.316406 C 32.429688 14.351562 32.457031 14.402344 32.464844 14.460938 L 32.464844 17.863281 C 32.464844 18 32.378906 18.050781 32.195312 18.050781 C 31.59375 18.03125 30.988281 18.089844 30.398438 18.222656 C 29.914062 18.324219 29.445312 18.480469 28.996094 18.683594 C 28.675781 18.832031 28.386719 19.046875 28.148438 19.316406 L 28.148438 28.035156 C 28.148438 28.207031 28.082031 28.277344 27.929688 28.277344 L 24.644531 28.277344 C 24.582031 28.285156 24.519531 28.269531 24.46875 28.230469 C 24.421875 28.191406 24.386719 28.132812 24.378906 28.070312 L 24.378906 18.53125 C 24.378906 18.121094 24.378906 17.691406 24.363281 17.25 C 24.34375 16.808594 24.347656 16.359375 24.328125 15.917969 C 24.328125 15.523438 24.296875 15.148438 24.261719 14.753906 C 24.246094 14.671875 24.296875 14.585938 24.378906 14.566406 C 24.378906 14.550781 24.414062 14.550781 24.429688 14.566406 Z M 24.433594 14.566406 "/>
</g>
</svg>
